<svg width="413" height="320" viewBox="0 0 413 320" fill="none" xmlns="http://www.w3.org/2000/svg">
<rect width="412.754" height="320" fill="white"/>
<path d="M357.857 254.293C354.013 248.213 351.511 241.333 350.557 234.133C350.428 234.293 350.299 234.48 350.196 234.64C351.073 234.56 351.821 234.747 352.517 235.307C352.904 235.627 353.446 235.067 353.059 234.747C352.182 234.053 351.279 233.733 350.196 233.84C349.912 233.867 349.783 234.08 349.834 234.347C350.815 241.627 353.317 248.56 357.212 254.693C357.47 255.12 358.141 254.72 357.857 254.293Z" fill="#A56DAA"/>
<path d="M353.033 234.88C352.156 225.52 353.549 216.08 357.109 207.413C356.877 207.413 356.671 207.413 356.439 207.413C356.826 208 357.109 208.56 357.341 209.227C357.496 209.707 358.244 209.493 358.09 209.013C357.832 208.293 357.548 207.653 357.109 207.013C356.955 206.8 356.568 206.72 356.439 207.013C352.827 215.813 351.382 225.387 352.259 234.88C352.311 235.387 353.085 235.413 353.033 234.88Z" fill="#A56DAA"/>
<path d="M358.322 208.88C359.225 206.613 360.231 204.373 361.366 202.24C362.32 200.453 363.687 196.853 366.164 197.36C368.666 197.867 369.492 201.307 370.034 203.467C370.627 205.867 370.885 208.347 370.962 210.8C371.117 215.44 370.756 220.107 370.446 224.72C370.111 229.627 369.569 234.533 368.46 239.333C367.248 244.667 365.442 249.813 363.146 254.72C362.939 255.173 363.584 255.6 363.816 255.12C366.087 250.293 367.892 245.227 369.105 240C370.369 234.64 370.936 229.173 371.272 223.68C371.607 218.213 372.123 212.613 371.478 207.147C371.091 203.867 370.163 196.667 365.829 196.453C363.558 196.347 362.372 198.8 361.417 200.507C359.947 203.12 358.683 205.84 357.574 208.64C357.393 209.147 358.141 209.36 358.322 208.88Z" fill="#A56DAA"/>
<path d="M371.04 227.973C371.917 226.16 372.949 224.453 374.187 222.907C374.78 222.16 377.566 218.32 378.676 219.2C378.908 219.387 378.985 220.293 379.037 220.613C379.192 221.28 379.295 221.973 379.346 222.667C379.45 223.733 379.475 224.773 379.424 225.84C379.321 228.107 378.934 230.373 378.392 232.587C376.431 240.667 372.923 248.293 368.357 255.12C368.073 255.547 368.744 255.947 369.028 255.52C374.316 247.653 378.624 238.213 379.94 228.64C380.249 226.373 380.353 224.08 380.043 221.813C379.914 220.827 379.733 217.627 378.16 217.947C377.437 218.107 376.767 218.96 376.251 219.44C375.425 220.24 374.626 221.093 373.903 221.973C372.51 223.68 371.324 225.547 370.369 227.547C370.137 228.027 370.808 228.427 371.04 227.973Z" fill="#A56DAA"/>
<path d="M168.223 255.307C164.818 251.28 162.006 246.747 159.89 241.867C159.839 242.053 159.787 242.24 159.761 242.427C160.793 241.947 161.825 241.76 162.96 241.84C163.45 241.867 163.45 241.067 162.96 241.04C161.696 240.96 160.535 241.2 159.374 241.733C159.168 241.84 159.168 242.107 159.245 242.293C161.412 247.253 164.25 251.813 167.707 255.893C167.991 256.267 168.558 255.707 168.223 255.307Z" fill="#A56DAA"/>
<path d="M163.012 240.72C160.974 237.04 159.684 232.96 159.323 228.747C159.091 226.08 158.626 216.533 163.45 219.147C165.153 220.08 166.133 222.08 167.01 223.76C168.042 225.707 168.945 227.733 169.745 229.787C171.19 233.547 172.247 237.467 172.892 241.44C173.666 246.16 173.847 250.96 173.486 255.76C173.434 256.267 174.234 256.267 174.259 255.76C174.982 246.133 173.408 236.4 169.642 227.547C168.713 225.36 167.681 223.12 166.391 221.12C165.463 219.68 164.199 218.267 162.47 217.947C158.343 217.173 158.394 223.6 158.394 226.267C158.42 231.493 159.787 236.613 162.315 241.147C162.599 241.547 163.27 241.147 163.012 240.72Z" fill="#A56DAA"/>
<path d="M172.041 234C171.886 232 172.454 222.88 176.117 224.8C179.032 226.32 179.651 231.04 179.806 234.027C179.986 237.413 179.857 240.827 179.78 244.213C179.677 247.76 179.419 251.28 178.232 254.64C178.052 255.12 178.8 255.333 178.98 254.853C180.451 250.747 180.528 246.373 180.606 242.053C180.683 237.973 181.018 233.627 179.961 229.627C179.367 227.413 177.252 222.533 174.208 224C172.918 224.64 172.351 226.453 171.938 227.76C171.319 229.813 171.112 231.92 171.267 234.053C171.293 234.533 172.067 234.533 172.041 234Z" fill="#A56DAA"/>
<path d="M161.051 218.613C164.379 226.293 167.114 234.213 169.203 242.347C169.332 242.853 170.08 242.64 169.951 242.133C167.836 233.947 165.101 225.947 161.722 218.213C161.516 217.733 160.845 218.133 161.051 218.613Z" fill="#A56DAA"/>
<path d="M158.91 229.147C162.857 230.587 166.056 233.547 167.888 237.44C168.12 237.893 168.765 237.493 168.558 237.04C166.624 232.96 163.244 229.893 159.117 228.373C158.652 228.213 158.446 228.987 158.91 229.147Z" fill="#A56DAA"/>
<path d="M166.623 222.213C165.927 224.587 165.566 227.013 165.488 229.467C165.463 229.973 166.236 229.973 166.262 229.467C166.34 227.067 166.701 224.72 167.372 222.427C167.5 221.92 166.752 221.707 166.623 222.213Z" fill="#A56DAA"/>
<path d="M171.834 229.147C174.259 232.08 175.988 235.44 177.02 239.147C177.149 239.653 177.897 239.44 177.768 238.933C176.71 235.093 174.904 231.6 172.402 228.587C172.067 228.187 171.525 228.747 171.834 229.147Z" fill="#A56DAA"/>
<path d="M175.678 228.933C177.355 237.547 177.071 246.053 176.194 254.747C176.143 255.253 176.916 255.253 176.968 254.747C177.871 246 178.129 237.413 176.426 228.72C176.323 228.213 175.575 228.427 175.678 228.933Z" fill="#A56DAA"/>
<path d="M125.425 159.6C125.425 161.493 125.425 163.387 125.425 165.307C125.425 165.813 126.199 165.813 126.199 165.307C126.199 163.413 126.199 161.52 126.199 159.6C126.199 159.093 125.425 159.093 125.425 159.6Z" fill="#A56DAA"/>
<path d="M125.812 165.84C134.841 165.84 143.845 165.84 152.874 165.84C153.364 165.84 153.364 165.04 152.874 165.04C143.845 165.04 134.841 165.04 125.812 165.04C125.322 165.04 125.322 165.84 125.812 165.84Z" fill="#A56DAA"/>
<path d="M125.812 159.92C134.893 159.92 143.974 159.92 153.054 159.92C153.544 159.92 153.544 159.12 153.054 159.12C143.974 159.12 134.893 159.12 125.812 159.12C125.322 159.12 125.322 159.92 125.812 159.92Z" fill="#A56DAA"/>
<path d="M152.667 159.467C152.667 161.413 152.667 163.36 152.667 165.307C152.667 165.813 153.441 165.813 153.441 165.307C153.441 163.36 153.441 161.413 153.441 159.467C153.441 158.933 152.667 158.933 152.667 159.467Z" fill="#A56DAA"/>
<path d="M135.615 165.733C135.615 167.36 135.615 168.987 135.615 170.613C135.615 171.12 136.389 171.12 136.389 170.613C136.389 168.987 136.389 167.36 136.389 165.733C136.389 165.227 135.615 165.227 135.615 165.733Z" fill="#A56DAA"/>
<path d="M136.054 171.307C143.251 171.307 150.449 171.307 157.646 171.307C158.136 171.307 158.136 170.507 157.646 170.507C150.449 170.507 143.251 170.507 136.054 170.507C135.538 170.507 135.538 171.307 136.054 171.307Z" fill="#A56DAA"/>
<path d="M153.106 165.893C154.705 165.893 156.305 165.893 157.93 165.893C158.42 165.893 158.42 165.093 157.93 165.093C156.33 165.093 154.731 165.093 153.106 165.093C152.59 165.093 152.59 165.893 153.106 165.893Z" fill="#A56DAA"/>
<path d="M157.569 165.787C157.569 167.44 157.569 169.093 157.569 170.773C157.569 171.28 158.343 171.28 158.343 170.773C158.343 169.12 158.343 167.467 158.343 165.787C158.343 165.28 157.569 165.28 157.569 165.787Z" fill="#A56DAA"/>
<path d="M155.092 171.013C155.092 172.827 155.092 174.613 155.092 176.427C155.092 176.933 155.866 176.933 155.866 176.427C155.866 174.613 155.866 172.827 155.866 171.013C155.866 170.48 155.092 170.48 155.092 171.013Z" fill="#A56DAA"/>
<path d="M155.582 176.853C161.516 176.853 167.449 176.853 173.382 176.853C173.872 176.853 173.872 176.053 173.382 176.053C167.449 176.053 161.516 176.053 155.582 176.053C155.066 176.053 155.066 176.853 155.582 176.853Z" fill="#A56DAA"/>
<path d="M158.007 171.36C163.167 171.36 168.326 171.36 173.485 171.36C173.975 171.36 173.975 170.56 173.485 170.56C168.326 170.56 163.167 170.56 158.007 170.56C157.517 170.56 157.517 171.36 158.007 171.36Z" fill="#A56DAA"/>
<path d="M173.047 170.907C173.047 172.64 173.047 174.347 173.047 176.08C173.047 176.587 173.821 176.587 173.821 176.08C173.821 174.347 173.821 172.64 173.821 170.907C173.821 170.4 173.047 170.4 173.047 170.907Z" fill="#A56DAA"/>
<path d="M155.453 176.027C150.526 176.027 145.599 176.027 140.672 176.027C140.181 176.027 140.181 176.827 140.672 176.827C145.599 176.827 150.526 176.827 155.453 176.827C155.943 176.827 155.943 176.027 155.453 176.027Z" fill="#A56DAA"/>
<path d="M140.981 176.373C140.981 174.667 140.981 172.96 140.981 171.227C140.981 170.72 140.207 170.72 140.207 171.227C140.207 172.933 140.207 174.64 140.207 176.373C140.207 176.88 140.981 176.88 140.981 176.373Z" fill="#A56DAA"/>
<path d="M109.173 45.2533C109.173 64.5333 109.173 83.7866 109.173 103.067C109.173 103.573 109.947 103.573 109.947 103.067C109.947 83.7866 109.947 64.5333 109.947 45.2533C109.947 44.7466 109.173 44.7466 109.173 45.2533Z" fill="#A56DAA"/>
<path d="M109.509 103.653C127.67 103.653 145.831 103.653 163.992 103.653C169.126 103.653 174.285 103.653 179.419 103.653C179.909 103.653 179.909 102.853 179.419 102.853C161.258 102.853 143.096 102.853 124.935 102.853C119.802 102.853 114.642 102.853 109.509 102.853C109.018 102.853 109.018 103.653 109.509 103.653Z" fill="#A56DAA"/>
<path d="M109.689 45.2533C127.644 45.2533 145.599 45.2533 163.554 45.2533C168.636 45.2533 173.692 45.2533 178.774 45.2533C179.264 45.2533 179.264 44.4532 178.774 44.4532C160.819 44.4532 142.864 44.4532 124.91 44.4532C119.828 44.4532 114.771 44.4532 109.689 44.4532C109.199 44.4532 109.199 45.2533 109.689 45.2533Z" fill="#A56DAA"/>
<path d="M179.187 45.0933C179.187 64.3733 179.187 83.6532 179.187 102.96C179.187 103.467 179.961 103.467 179.961 102.96C179.961 83.6799 179.961 64.3999 179.961 45.0933C179.961 44.5866 179.187 44.5866 179.187 45.0933Z" fill="#A56DAA"/>
<path d="M112.991 48.1866C112.991 65.6 112.991 83.0133 112.991 100.4C112.991 100.907 113.765 100.907 113.765 100.4C113.765 82.9866 113.765 65.5733 113.765 48.1866C113.765 47.6533 112.991 47.6533 112.991 48.1866Z" fill="#A56DAA"/>
<path d="M113.327 100.96C134.016 100.96 154.705 100.96 175.369 100.96C175.859 100.96 175.859 100.16 175.369 100.16C154.679 100.16 133.99 100.16 113.327 100.16C112.836 100.16 112.811 100.96 113.327 100.96Z" fill="#A56DAA"/>
<path d="M113.481 48.2133C133.913 48.2133 154.37 48.2133 174.801 48.2133C175.291 48.2133 175.291 47.4133 174.801 47.4133C154.37 47.4133 133.913 47.4133 113.481 47.4133C112.991 47.4133 112.991 48.2133 113.481 48.2133Z" fill="#A56DAA"/>
<path d="M175.111 48.0266C175.111 65.4399 175.111 82.8799 175.111 100.293C175.111 100.8 175.885 100.8 175.885 100.293C175.885 82.8799 175.885 65.4399 175.885 48.0266C175.885 47.5199 175.111 47.5199 175.111 48.0266Z" fill="#A56DAA"/>
<path d="M143.354 48.2667C143.354 56.7734 143.354 65.2534 143.354 73.76C143.354 74.2667 144.128 74.2667 144.128 73.76C144.128 65.2534 144.128 56.7734 144.128 48.2667C144.128 47.7334 143.354 47.7334 143.354 48.2667Z" fill="#A56DAA"/>
<path d="M143.741 73.3334C133.913 73.3334 124.058 73.3334 114.23 73.3334C113.739 73.3334 113.739 74.1334 114.23 74.1334C124.058 74.1334 133.913 74.1334 143.741 74.1334C144.232 74.1334 144.232 73.3334 143.741 73.3334Z" fill="#A56DAA"/>
<path d="M147.198 48.2667C147.198 56.6934 147.198 65.0934 147.198 73.5201C147.198 74.0267 147.972 74.0267 147.972 73.5201C147.972 65.0934 147.972 56.6934 147.972 48.2667C147.972 47.7334 147.198 47.7334 147.198 48.2667Z" fill="#A56DAA"/>
<path d="M147.585 74.3734C156.666 74.3734 165.746 74.3734 174.827 74.3734C175.317 74.3734 175.317 73.5734 174.827 73.5734C165.746 73.5734 156.666 73.5734 147.585 73.5734C147.069 73.5734 147.069 74.3734 147.585 74.3734Z" fill="#A56DAA"/>
<path d="M113.997 78.1066C123.878 78.1066 133.758 78.1066 143.613 78.1066C144.103 78.1066 144.103 77.3066 143.613 77.3066C133.732 77.3066 123.852 77.3066 113.997 77.3066C113.507 77.3066 113.482 78.1066 113.997 78.1066Z" fill="#A56DAA"/>
<path d="M143.225 77.8134C143.225 85.3067 143.225 92.7734 143.225 100.267C143.225 100.773 143.999 100.773 143.999 100.267C143.999 92.7734 143.999 85.3067 143.999 77.8134C143.999 77.3067 143.225 77.3067 143.225 77.8134Z" fill="#A56DAA"/>
<path d="M147.069 78.4C147.069 85.68 147.069 92.96 147.069 100.267C147.069 100.773 147.843 100.773 147.843 100.267C147.843 92.9867 147.843 85.7067 147.843 78.4C147.843 77.8934 147.069 77.8934 147.069 78.4Z" fill="#A56DAA"/>
<path d="M147.353 78.9333C156.666 78.9333 165.978 78.9333 175.291 78.9333C175.781 78.9333 175.781 78.1333 175.291 78.1333C165.978 78.1333 156.666 78.1333 147.353 78.1333C146.863 78.1333 146.837 78.9333 147.353 78.9333Z" fill="#A56DAA"/>
<path d="M166.649 48.4533C160.845 55.2267 155.402 62.32 150.294 69.68C150.01 70.1067 150.681 70.5067 150.965 70.08C156.021 62.7733 161.438 55.7333 167.191 49.0133C167.526 48.64 166.985 48.0533 166.649 48.4533Z" fill="#A56DAA"/>
<path d="M166.598 58.32C163.915 61.68 161.232 65.04 158.549 68.3733C158.239 68.7733 158.781 69.3333 159.091 68.9333C161.774 65.5733 164.456 62.2133 167.139 58.88C167.449 58.48 166.907 57.92 166.598 58.32Z" fill="#A56DAA"/>
<path d="M116.964 99.9733C123.723 92.9866 130.482 85.9733 137.241 78.9866C137.602 78.6133 137.034 78.0533 136.699 78.4266C129.94 85.4133 123.181 92.4266 116.422 99.4133C116.087 99.7599 116.629 100.32 116.964 99.9733Z" fill="#A56DAA"/>
<path d="M128.65 97.5199C130.946 94.4799 133.371 91.5999 135.976 88.8533C136.338 88.48 135.77 87.92 135.435 88.2933C132.829 91.0399 130.378 93.9199 128.108 96.9599C127.799 97.3599 128.34 97.9466 128.65 97.5199Z" fill="#A56DAA"/>
<path d="M304.767 44.3733C304.767 63.6533 304.767 82.9066 304.767 102.187C304.767 102.693 305.541 102.693 305.541 102.187C305.541 82.9066 305.541 63.6533 305.541 44.3733C305.541 43.8666 304.767 43.8666 304.767 44.3733Z" fill="#A56DAA"/>
<path d="M305.102 102.773C323.263 102.773 341.425 102.773 359.586 102.773C364.719 102.773 369.879 102.773 375.012 102.773C375.502 102.773 375.502 101.973 375.012 101.973C356.851 101.973 338.69 101.973 320.529 101.973C315.395 101.973 310.236 101.973 305.102 101.973C304.612 101.973 304.612 102.773 305.102 102.773Z" fill="#A56DAA"/>
<path d="M305.283 44.4C323.238 44.4 341.192 44.4 359.147 44.4C364.229 44.4 369.286 44.4 374.368 44.4C374.858 44.4 374.858 43.6 374.368 43.6C356.413 43.6 338.458 43.6 320.503 43.6C315.421 43.6 310.365 43.6 305.283 43.6C304.793 43.6 304.793 44.4 305.283 44.4Z" fill="#A56DAA"/>
<path d="M374.78 44.2134C374.78 63.4934 374.78 82.7734 374.78 102.08C374.78 102.587 375.554 102.587 375.554 102.08C375.554 82.8 375.554 63.52 375.554 44.2134C375.554 43.7067 374.78 43.7067 374.78 44.2134Z" fill="#A56DAA"/>
<path d="M308.585 47.3067C308.585 64.7201 308.585 82.1334 308.585 99.5201C308.585 100.027 309.359 100.027 309.359 99.5201C309.359 82.1067 309.359 64.6934 309.359 47.3067C309.359 46.7734 308.585 46.7734 308.585 47.3067Z" fill="#A56DAA"/>
<path d="M308.92 100.08C329.609 100.08 350.299 100.08 370.962 100.08C371.452 100.08 371.452 99.28 370.962 99.28C350.273 99.28 329.584 99.28 308.92 99.28C308.404 99.28 308.404 100.08 308.92 100.08Z" fill="#A56DAA"/>
<path d="M309.075 47.3333C329.506 47.3333 349.964 47.3333 370.395 47.3333C370.885 47.3333 370.885 46.5333 370.395 46.5333C349.964 46.5333 329.506 46.5333 309.075 46.5333C308.585 46.5333 308.585 47.3333 309.075 47.3333Z" fill="#A56DAA"/>
<path d="M370.704 47.1466C370.704 64.5599 370.704 81.9999 370.704 99.4133C370.704 99.9199 371.478 99.9199 371.478 99.4133C371.478 81.9999 371.478 64.5599 371.478 47.1466C371.478 46.6399 370.704 46.6399 370.704 47.1466Z" fill="#A56DAA"/>
<path d="M338.948 47.3867C338.948 55.8934 338.948 64.3734 338.948 72.88C338.948 73.3867 339.722 73.3867 339.722 72.88C339.722 64.3734 339.722 55.8934 339.722 47.3867C339.722 46.8534 338.948 46.8534 338.948 47.3867Z" fill="#A56DAA"/>
<path d="M339.335 72.4532C329.506 72.4532 319.652 72.4532 309.823 72.4532C309.333 72.4532 309.333 73.2532 309.823 73.2532C319.652 73.2532 329.506 73.2532 339.335 73.2532C339.825 73.2532 339.825 72.4532 339.335 72.4532Z" fill="#A56DAA"/>
<path d="M342.792 47.3867C342.792 55.8134 342.792 64.2133 342.792 72.64C342.792 73.1467 343.566 73.1467 343.566 72.64C343.566 64.2133 343.566 55.8134 343.566 47.3867C343.566 46.8534 342.792 46.8534 342.792 47.3867Z" fill="#A56DAA"/>
<path d="M343.179 73.4934C352.259 73.4934 361.34 73.4934 370.421 73.4934C370.911 73.4934 370.911 72.6934 370.421 72.6934C361.34 72.6934 352.259 72.6934 343.179 72.6934C342.663 72.6934 342.663 73.4934 343.179 73.4934Z" fill="#A56DAA"/>
<path d="M309.591 77.2266C319.471 77.2266 329.352 77.2266 339.206 77.2266C339.696 77.2266 339.696 76.4266 339.206 76.4266C329.326 76.4266 319.446 76.4266 309.591 76.4266C309.075 76.4266 309.075 77.2266 309.591 77.2266Z" fill="#A56DAA"/>
<path d="M338.819 76.9599C338.819 84.4533 338.819 91.9199 338.819 99.4133C338.819 99.9199 339.593 99.9199 339.593 99.4133C339.593 91.9199 339.593 84.4533 339.593 76.9599C339.593 76.4266 338.819 76.4266 338.819 76.9599Z" fill="#A56DAA"/>
<path d="M342.663 77.5466C342.663 84.8266 342.663 92.1066 342.663 99.4133C342.663 99.92 343.437 99.92 343.437 99.4133C343.437 92.1333 343.437 84.8533 343.437 77.5466C343.437 77.0133 342.663 77.0133 342.663 77.5466Z" fill="#A56DAA"/>
<path d="M342.947 78.0533C352.26 78.0533 361.572 78.0533 370.885 78.0533C371.375 78.0533 371.375 77.2533 370.885 77.2533C361.572 77.2533 352.26 77.2533 342.947 77.2533C342.431 77.2533 342.431 78.0533 342.947 78.0533Z" fill="#A56DAA"/>
<path d="M362.243 47.5733C356.438 54.3466 350.995 61.44 345.887 68.8C345.604 69.2267 346.274 69.6267 346.558 69.2C351.614 61.8933 357.032 54.8533 362.785 48.1333C363.12 47.76 362.578 47.2 362.243 47.5733Z" fill="#A56DAA"/>
<path d="M362.191 57.44C359.508 60.8 356.825 64.16 354.142 67.4933C353.833 67.8933 354.375 68.4533 354.684 68.0533C357.367 64.6933 360.05 61.3333 362.733 58C363.043 57.6 362.501 57.04 362.191 57.44Z" fill="#A56DAA"/>
<path d="M312.558 99.0934C319.316 92.1067 326.075 85.0934 332.834 78.1067C333.195 77.7334 332.628 77.1734 332.292 77.5467C325.534 84.5334 318.775 91.5467 312.016 98.5334C311.681 98.88 312.222 99.44 312.558 99.0934Z" fill="#A56DAA"/>
<path d="M324.244 96.6667C326.54 93.6267 328.965 90.7467 331.57 88C331.931 87.6267 331.364 87.0667 331.028 87.44C328.423 90.1867 325.972 93.0667 323.702 96.1067C323.392 96.48 323.934 97.0667 324.244 96.6667Z" fill="#A56DAA"/>
<path d="M303.374 130.72C312.48 130.72 321.612 130.72 330.719 130.72C331.209 130.72 331.209 129.92 330.719 129.92C321.612 129.92 312.48 129.92 303.374 129.92C302.884 129.92 302.884 130.72 303.374 130.72Z" fill="#A56DAA"/>
<path d="M316.737 130.667C316.737 132.453 316.737 134.213 316.737 136C316.737 136.507 317.511 136.507 317.511 136C317.511 134.213 317.511 132.453 317.511 130.667C317.511 130.16 316.737 130.16 316.737 130.667Z" fill="#A56DAA"/>
<path d="M317.124 136.4C324.295 136.4 331.467 136.4 338.613 136.4C339.103 136.4 339.103 135.6 338.613 135.6C331.441 135.6 324.27 135.6 317.124 135.6C316.634 135.6 316.634 136.4 317.124 136.4Z" fill="#A56DAA"/>
<path d="M330.667 130.48C330.667 132.187 330.667 133.92 330.667 135.627C330.667 136.133 331.441 136.133 331.441 135.627C331.441 133.92 331.441 132.187 331.441 130.48C331.441 129.973 330.667 129.973 330.667 130.48Z" fill="#A56DAA"/>
<path d="M303.761 130.133C303.761 128.72 303.761 127.28 303.761 125.867C303.761 125.36 302.987 125.36 302.987 125.867C302.987 127.28 302.987 128.72 302.987 130.133C302.987 130.64 303.761 130.64 303.761 130.133Z" fill="#A56DAA"/>
<path d="M303.709 126.08C310.365 126.08 317.02 126.08 323.65 126.08C324.141 126.08 324.141 125.28 323.65 125.28C316.995 125.28 310.339 125.28 303.709 125.28C303.219 125.28 303.219 126.08 303.709 126.08Z" fill="#A56DAA"/>
<path d="M323.444 126.213C323.444 127.573 323.444 128.933 323.444 130.293C323.444 130.8 324.218 130.8 324.218 130.293C324.218 128.933 324.218 127.573 324.218 126.213C324.218 125.707 323.444 125.707 323.444 126.213Z" fill="#A56DAA"/>
<path d="M299.246 136.587C305.618 136.587 311.964 136.587 318.336 136.587C318.826 136.587 318.826 135.787 318.336 135.787C311.964 135.787 305.618 135.787 299.246 135.787C298.756 135.787 298.756 136.587 299.246 136.587Z" fill="#A56DAA"/>
<path d="M298.679 136.533C298.679 138.027 298.679 139.493 298.679 140.987C298.679 141.493 299.453 141.493 299.453 140.987C299.453 139.493 299.453 138.027 299.453 136.533C299.453 136.027 298.679 136.027 298.679 136.533Z" fill="#A56DAA"/>
<path d="M299.066 141.733C305.154 141.733 311.216 141.733 317.304 141.733C317.795 141.733 317.795 140.933 317.304 140.933C311.216 140.933 305.154 140.933 299.066 140.933C298.576 140.933 298.576 141.733 299.066 141.733Z" fill="#A56DAA"/>
<path d="M316.917 136.533C316.917 138.08 316.917 139.627 316.917 141.147C316.917 141.653 317.691 141.653 317.691 141.147C317.691 139.6 317.691 138.053 317.691 136.533C317.691 136.027 316.917 136.027 316.917 136.533Z" fill="#A56DAA"/>
<path d="M171.499 118.96C182.747 118.96 193.968 118.96 205.216 118.96C205.706 118.96 205.706 118.16 205.216 118.16C193.968 118.16 182.747 118.16 171.499 118.16C171.009 118.16 171.009 118.96 171.499 118.96Z" fill="#A56DAA"/>
<path d="M171.731 118.56C171.731 117.067 171.731 115.573 171.731 114.08C171.731 113.573 170.957 113.573 170.957 114.08C170.957 115.573 170.957 117.067 170.957 118.56C170.957 119.067 171.731 119.067 171.731 118.56Z" fill="#A56DAA"/>
<path d="M171.783 114C177.794 114 183.83 114 189.841 114C190.331 114 190.331 113.2 189.841 113.2C183.83 113.2 177.794 113.2 171.783 113.2C171.293 113.2 171.293 114 171.783 114Z" fill="#A56DAA"/>
<path d="M189.454 114.08C189.454 115.52 189.454 116.96 189.454 118.4C189.454 118.907 190.228 118.907 190.228 118.4C190.228 116.96 190.228 115.52 190.228 114.08C190.228 113.547 189.454 113.547 189.454 114.08Z" fill="#A56DAA"/>
<path d="M184.527 119.173C184.527 120.667 184.527 122.16 184.527 123.653C184.527 124.16 185.301 124.16 185.301 123.653C185.301 122.16 185.301 120.667 185.301 119.173C185.301 118.64 184.527 118.64 184.527 119.173Z" fill="#A56DAA"/>
<path d="M185.068 124.347C191.621 124.347 198.199 124.347 204.752 124.347C205.242 124.347 205.242 123.547 204.752 123.547C198.199 123.547 191.621 123.547 185.068 123.547C184.578 123.547 184.578 124.347 185.068 124.347Z" fill="#A56DAA"/>
<path d="M204.829 119.013C204.829 120.72 204.829 122.4 204.829 124.107C204.829 124.613 205.603 124.613 205.603 124.107C205.603 122.4 205.603 120.72 205.603 119.013C205.603 118.507 204.829 118.507 204.829 119.013Z" fill="#A56DAA"/>
<path d="M189.299 124.24C189.299 125.627 189.299 127.013 189.299 128.4C189.299 128.907 190.073 128.907 190.073 128.4C190.073 127.013 190.073 125.627 190.073 124.24C190.073 123.733 189.299 123.733 189.299 124.24Z" fill="#A56DAA"/>
<path d="M189.402 128.32C183.675 128.32 177.974 128.32 172.247 128.32C171.757 128.32 171.757 129.12 172.247 129.12C177.974 129.12 183.675 129.12 189.402 129.12C189.892 129.12 189.892 128.32 189.402 128.32Z" fill="#A56DAA"/>
<path d="M185.816 123.707C181.328 123.707 176.865 123.707 172.376 123.707C171.886 123.707 171.886 124.507 172.376 124.507C176.865 124.507 181.328 124.507 185.816 124.507C186.307 124.507 186.307 123.707 185.816 123.707Z" fill="#A56DAA"/>
<path d="M172.015 124.107C172.015 125.6 172.015 127.093 172.015 128.587C172.015 129.093 172.789 129.093 172.789 128.587C172.789 127.093 172.789 125.6 172.789 124.107C172.789 123.573 172.015 123.573 172.015 124.107Z" fill="#A56DAA"/>
<path d="M350.428 184.347C357.522 184.347 364.616 184.347 371.71 184.347C372.201 184.347 372.201 183.547 371.71 183.547C364.616 183.547 357.522 183.547 350.428 183.547C349.938 183.547 349.938 184.347 350.428 184.347Z" fill="#A56DAA"/>
<path d="M363.094 183.733C363.094 182.08 363.094 180.427 363.094 178.773C363.094 178.267 362.32 178.267 362.32 178.773C362.32 180.427 362.32 182.08 362.32 183.733C362.32 184.24 363.094 184.24 363.094 183.733Z" fill="#A56DAA"/>
<path d="M362.914 179.067C368.976 179.067 375.038 179.067 381.126 179.067C381.617 179.067 381.617 178.267 381.126 178.267C375.064 178.267 369.002 178.267 362.914 178.267C362.398 178.267 362.398 179.067 362.914 179.067Z" fill="#A56DAA"/>
<path d="M380.714 178.88C380.714 180.293 380.714 181.707 380.714 183.12C380.714 183.627 381.488 183.627 381.488 183.12C381.488 181.707 381.488 180.293 381.488 178.88C381.488 178.347 380.714 178.347 380.714 178.88Z" fill="#A56DAA"/>
<path d="M371.195 184.24C374.393 184.24 377.592 184.24 380.817 184.24C381.307 184.24 381.307 183.44 380.817 183.44C377.618 183.44 374.419 183.44 371.195 183.44C370.679 183.44 370.679 184.24 371.195 184.24Z" fill="#A56DAA"/>
<path d="M349.628 184.373C349.628 185.653 349.628 186.907 349.628 188.187C349.628 188.693 350.402 188.693 350.402 188.187C350.402 186.907 350.402 185.653 350.402 184.373C350.402 183.867 349.628 183.84 349.628 184.373Z" fill="#A56DAA"/>
<path d="M350.118 188.987C356.825 188.987 363.558 188.987 370.266 188.987C370.756 188.987 370.756 188.187 370.266 188.187C363.558 188.187 356.825 188.187 350.118 188.187C349.628 188.187 349.628 188.987 350.118 188.987Z" fill="#A56DAA"/>
<path d="M370.085 184.053C370.085 185.493 370.085 186.933 370.085 188.4C370.085 188.907 370.859 188.907 370.859 188.4C370.859 186.96 370.859 185.52 370.859 184.053C370.859 183.547 370.085 183.547 370.085 184.053Z" fill="#A56DAA"/>
<path d="M352.466 172.613C358.967 172.613 365.493 172.613 371.994 172.613C372.484 172.613 372.484 171.813 371.994 171.813C365.493 171.813 358.967 171.813 352.466 171.813C351.976 171.813 351.976 172.613 352.466 172.613Z" fill="#A56DAA"/>
<path d="M371.607 172.533C371.607 174.587 371.607 176.613 371.607 178.667C371.607 179.173 372.381 179.173 372.381 178.667C372.381 176.613 372.381 174.587 372.381 172.533C372.381 172 371.607 172 371.607 172.533Z" fill="#A56DAA"/>
<path d="M352.285 172.32C352.285 174.213 352.285 176.133 352.285 178.027C352.285 178.533 353.059 178.533 353.059 178.027C353.059 176.133 353.059 174.213 353.059 172.32C353.059 171.813 352.285 171.813 352.285 172.32Z" fill="#A56DAA"/>
<path d="M353.188 178.853C357.78 178.853 362.398 178.853 366.99 178.853C367.48 178.853 367.48 178.053 366.99 178.053C362.398 178.053 357.78 178.053 353.188 178.053C352.698 178.053 352.698 178.853 353.188 178.853Z" fill="#A56DAA"/>
<path d="M137.653 256.16C141.884 256.16 146.115 256.16 150.346 256.16C150.836 256.16 150.836 255.36 150.346 255.36C146.115 255.36 141.884 255.36 137.653 255.36C137.163 255.36 137.163 256.16 137.653 256.16Z" fill="#161616"/>
<path d="M105.123 256.213C142.039 256.213 178.929 256.213 215.844 256.213C252.554 256.213 289.289 256.213 325.998 256.213C346.713 256.213 367.428 256.213 388.143 256.213C389.149 256.213 389.149 254.613 388.143 254.613C351.228 254.613 314.338 254.613 277.422 254.613C240.713 254.613 203.978 254.613 167.268 254.613C146.553 254.613 125.838 254.613 105.123 254.613C104.117 254.613 104.117 256.213 105.123 256.213Z" fill="#161616"/>
<path d="M338.69 261.6C356.593 261.6 374.471 261.6 392.374 261.6C393.38 261.6 393.38 260 392.374 260C374.471 260 356.593 260 338.69 260C337.71 260 337.71 261.6 338.69 261.6Z" fill="#161616"/>
<path d="M154.576 281.76C174.647 281.76 194.691 281.76 214.761 281.76C215.767 281.76 215.767 280.16 214.761 280.16C194.691 280.16 174.647 280.16 154.576 280.16C153.57 280.16 153.57 281.76 154.576 281.76Z" fill="#161616"/>
<path d="M45.9189 273.947C59.3076 273.947 72.6963 273.947 86.085 273.947C87.0911 273.947 87.0911 272.347 86.085 272.347C72.6963 272.347 59.3076 272.347 45.9189 272.347C44.9128 272.347 44.9128 273.947 45.9189 273.947Z" fill="#161616"/>
<path d="M94.5464 266.667C109.225 266.667 123.904 266.667 138.582 266.667C139.588 266.667 139.588 265.067 138.582 265.067C123.904 265.067 109.225 265.067 94.5464 265.067C93.5403 265.067 93.5403 266.667 94.5464 266.667Z" fill="#161616"/>
<path d="M85.1046 245.067C104.917 233.84 123.826 220.96 142.323 207.547C160.845 194.107 179.032 180.133 197.528 166.64C207.899 159.093 218.372 151.68 229.052 144.613C229.465 144.347 229.078 143.653 228.665 143.92C209.601 156.533 191.234 170.213 172.892 183.92C154.576 197.627 136.26 211.387 117.299 224.107C106.671 231.227 95.862 238.053 84.7434 244.347C84.2791 244.613 84.666 245.307 85.1046 245.067Z" fill="#161616"/>
<path d="M70.7614 239.573C69.2136 240.453 68.1817 241.6 67.64 242.213C66.8144 243.147 66.2469 243.76 65.8084 244.693C65.1376 246.187 65.215 247.867 65.4214 251.173C65.5762 253.627 65.731 253.387 65.6278 253.947C65.0602 256.987 61.8356 257.547 61.913 259.6C61.9646 260.88 63.2028 261.92 64.2605 262.293C65.8857 262.88 67.8463 262.133 69.0072 260.4C67.7689 261.04 65.9631 262.267 64.8281 264.453C64.4153 265.253 63.8736 266.293 64.2347 266.8C64.8539 267.68 67.6657 266.64 70.1681 265.52C70.0391 266.133 70.0133 266.88 70.426 267.413C71.4321 268.72 74.3988 267.68 75.1727 267.413C76.0498 267.093 76.1788 266.933 80.1258 264.373C82.1895 263.04 82.9118 262.587 84.0985 261.68C85.1046 260.907 85.8785 260.24 86.446 259.733C88.3034 259.787 90.5478 259.68 93.0243 259.2C97.6936 258.267 101.279 256.373 103.575 254.88C103.756 255.653 103.911 256.453 104.091 257.227C101.847 258.667 100.119 259.733 98.9318 260.453C98.1837 260.907 97.4098 261.387 97.4872 261.733C97.6162 262.24 99.3704 262.213 100.48 262.213C101.718 262.213 102.75 262.053 103.472 261.947C103.524 262.133 103.704 262.64 104.194 262.88C104.917 263.28 105.845 262.827 105.82 262.747C105.82 262.693 105.433 262.693 105.433 262.667C105.433 262.613 108.245 262.613 110.179 262.453C111.805 262.32 114.178 262 117.093 261.04C117.583 258.987 117.686 257.387 117.686 256.267C117.686 255.44 117.635 255.013 117.764 254.187C117.996 252.56 118.486 252.027 118.744 250.827C118.925 250.027 118.976 248.827 118.486 247.253C119.337 246.907 119.905 246.427 120.24 246.107C120.318 246.027 122.072 244.267 121.865 241.867C121.814 241.36 121.762 240.693 121.35 240.453C120.679 240.08 119.518 241.04 118.95 241.733C117.944 242.933 117.893 244.427 117.919 245.093C117.222 243.973 115.829 242.053 113.43 240.853C112.475 240.373 111.521 240.08 110.489 239.92C105.639 239.067 99.9379 240.8 96.3521 242.133C91.6571 243.893 89.4127 245.413 86.5234 244.907C85.6463 244.747 83.7373 244.4 82.4217 242.88C81.9057 242.293 81.8542 241.947 81.1834 241.12C80.9513 240.827 79.7388 239.36 78.191 238.64C75.0437 237.147 71.4837 239.173 70.7614 239.573Z" fill="white"/>
<path d="M83.9696 244.4C83.3762 245.813 82.5507 247.093 81.5189 248.24C81.1835 248.613 81.7252 249.173 82.0606 248.8C83.1441 247.627 83.9954 246.293 84.6145 244.8C84.8467 244.32 84.176 243.92 83.9696 244.4Z" fill="#652D69"/>
<path d="M84.3307 244.72C83.7374 246.427 82.8345 247.92 81.622 249.2C81.2866 249.573 81.8284 250.133 82.1637 249.76C83.4794 248.373 84.4339 246.747 85.0788 244.933C85.2336 244.453 84.4855 244.24 84.3307 244.72Z" fill="#652D69"/>
<path d="M71.6127 245.84C72.1028 249.093 72.5671 252.453 74.0892 255.413C75.1727 257.547 77.4428 259.573 79.8677 258.267C82.2668 256.96 82.6022 253.76 82.4474 251.253C82.2668 248.507 81.3381 245.867 79.4034 243.92C79.0422 243.573 78.5005 244.133 78.8616 244.48C80.4868 246.133 81.3639 248.32 81.6219 250.64C81.8799 253.013 81.8025 256.453 79.3776 257.627C76.4367 259.013 74.6051 255.013 73.8828 252.773C73.1089 250.453 72.7477 248.053 72.4124 245.627C72.2834 245.12 71.5353 245.333 71.6127 245.84Z" fill="#161616"/>
<path d="M70.6323 239.147C67.7172 241.253 65.0601 243.973 64.6732 247.813C64.5958 248.72 64.6474 249.627 64.8537 250.48C65.1633 251.733 65.834 252.773 65.1117 254.053C63.9766 256.08 62.3514 257.973 61.01 259.867C60.7262 260.293 61.3969 260.693 61.6807 260.267C62.9448 258.48 64.2604 256.72 65.4729 254.907C66.5048 253.387 66.221 252.373 65.7308 250.667C64.3378 246.053 67.6656 242.24 71.045 239.813C71.432 239.547 71.045 238.853 70.6323 239.147Z" fill="#161616"/>
<path d="M60.9843 260.56C62.0678 261.573 63.2545 262.667 64.7765 262.827C66.1696 262.96 67.511 262.187 68.5945 261.387C71.0452 259.6 72.7994 257.067 73.9345 254.213C74.1151 253.733 73.367 253.52 73.1864 254C72.2835 256.293 70.8904 258.4 69.0588 260C68.027 260.88 66.6855 261.947 65.2925 262.027C63.7704 262.133 62.558 260.96 61.5261 259.973C61.1649 259.653 60.6232 260.213 60.9843 260.56Z" fill="#161616"/>
<path d="M65.9374 251.12C66.3243 251.867 66.7629 252.56 67.3046 253.173C67.64 253.573 68.1817 252.987 67.8464 252.613C67.3562 252.027 66.9435 251.387 66.6081 250.72C66.3501 250.267 65.7052 250.667 65.9374 251.12Z" fill="#161616"/>
<path d="M62.1708 259.147C62.6868 259.76 62.8416 260.533 62.7642 261.307C62.7126 261.813 63.4865 261.813 63.5381 261.307C63.6413 260.32 63.3575 259.333 62.7126 258.587C62.3772 258.213 61.8355 258.773 62.1708 259.147Z" fill="#161616"/>
<path d="M61.4745 260.32C61.784 260.56 62.0678 260.827 62.3774 261.067C62.6869 261.333 63.2545 260.987 62.9965 260.587C62.7901 260.267 62.6611 259.893 62.6611 259.493C62.429 259.573 62.171 259.627 61.9388 259.707C62.0162 259.813 62.0936 259.92 62.1452 260.027C62.429 260.453 63.0997 260.053 62.8159 259.627C62.7385 259.52 62.6611 259.413 62.6095 259.307C62.4032 259.013 61.8872 259.093 61.8872 259.52C61.8872 260.053 62.042 260.56 62.3258 261.013C62.5321 260.853 62.7385 260.693 62.9449 260.533C62.6353 260.293 62.3516 260.027 62.042 259.787C61.8872 259.653 61.6551 259.627 61.5003 259.787C61.3455 259.893 61.3197 260.187 61.4745 260.32Z" fill="#161616"/>
<path d="M76.7979 238.56C79.0165 239.12 80.5127 240.88 81.8541 242.667C83.144 244.347 84.0211 245.253 86.1881 245.12C90.6768 244.827 94.9591 243.067 99.2156 241.733C103.601 240.373 109.147 238.88 113.481 241.173C117.97 243.547 119.647 249.253 117.403 253.867C117.17 254.32 117.841 254.72 118.073 254.267C121.298 247.6 117.016 240.107 109.999 239.333C101.95 238.453 94.6753 243.387 86.833 244.24C85.3626 244.4 84.1243 244.32 83.0924 243.04C82.4733 242.267 81.9057 241.44 81.2608 240.693C80.0742 239.333 78.7069 238.213 76.9527 237.76C76.5141 237.653 76.3078 238.427 76.7979 238.56Z" fill="#161616"/>
<path d="M109.741 246.187C107.729 247.84 106.258 250 106.413 252.773C106.568 255.227 107.987 257.333 110.102 258.453C110.541 258.693 110.928 258 110.489 257.76C108.503 256.693 107.161 254.693 107.187 252.32C107.213 249.92 108.554 248.16 110.283 246.747C110.67 246.453 110.128 245.867 109.741 246.187Z" fill="#161616"/>
<path d="M110.154 258.24C108.709 258.693 107.29 259.227 105.897 259.867C105.123 260.24 103.214 260.773 102.956 261.76C102.414 263.84 107.419 263.013 108.167 262.96C109.663 262.853 111.16 262.693 112.656 262.453C113.972 262.24 115.752 262.213 116.938 261.547C117.841 261.067 117.764 260.027 117.815 259.093C117.944 257.253 118.099 255.44 118.228 253.6C118.28 253.093 117.506 253.093 117.454 253.6C117.377 254.773 117.274 255.92 117.196 257.093C117.119 258.16 117.351 260.293 116.345 260.907C115.648 261.333 114.436 261.333 113.636 261.467C112.372 261.68 111.134 261.867 109.844 262C108.786 262.107 107.729 262.187 106.671 262.213C106.103 262.24 105.536 262.293 104.968 262.267C104.478 262.24 103.653 262.427 103.988 261.707C104.143 261.413 105.123 261.067 105.433 260.933C106.026 260.64 106.645 260.347 107.264 260.08C108.27 259.653 109.302 259.307 110.334 258.987C110.85 258.853 110.644 258.08 110.154 258.24Z" fill="#161616"/>
<path d="M81.8025 252.773C81.9831 257.227 78.4489 260.213 74.9921 262.133C73.5217 262.933 67.9753 264.747 69.9359 267.467C71.6643 269.867 75.9208 267.387 77.804 266.347C81.0544 264.56 83.8921 262.133 86.7298 259.707C87.1167 259.387 86.575 258.827 86.188 259.147C83.7373 261.227 81.2866 263.333 78.5521 264.987C77.1591 265.84 75.6886 266.587 74.1408 267.12C73.2637 267.413 72.1028 267.893 71.2257 267.44C69.4199 266.533 70.9162 265.173 71.948 264.587C76.5915 262.053 82.8602 259.227 82.5764 252.747C82.5506 252.267 81.7767 252.267 81.8025 252.773Z" fill="#161616"/>
<path d="M66.7371 251.147C66.8661 250.24 67.3304 249.413 68.1301 248.987C68.5687 248.747 68.1817 248.053 67.7432 248.293C66.7629 248.827 66.1438 249.84 65.989 250.933C65.9116 251.44 66.6597 251.653 66.7371 251.147Z" fill="#161616"/>
<path d="M69.9617 258.773C69.549 259.573 68.7751 260.027 68.1044 260.587C67.4078 261.173 66.7371 261.813 66.0922 262.48C65.3183 263.307 63.5899 264.747 63.5125 266C63.3319 269.093 68.9041 266.427 69.9617 266.08C70.4261 265.92 70.2197 265.147 69.7554 265.307C68.5945 265.707 67.4594 266.133 66.2728 266.48C65.9374 266.613 65.5762 266.693 65.2409 266.72C64.5959 265.947 64.5702 265.28 65.1119 264.773C65.3699 264.32 65.8342 263.92 66.1696 263.547C66.9435 262.693 67.769 261.893 68.6461 261.147C69.3684 260.533 70.1681 260.053 70.6067 259.173C70.8646 258.72 70.1939 258.32 69.9617 258.773Z" fill="#161616"/>
<path d="M86.6524 260C93.9014 260.027 101.021 257.707 106.929 253.36C107.342 253.067 106.955 252.373 106.542 252.667C100.738 256.933 93.7982 259.227 86.6524 259.2C86.1623 259.173 86.1623 259.973 86.6524 260Z" fill="#161616"/>
<path d="M102.93 255.253C103.085 255.707 103.214 256.133 103.369 256.587C103.601 257.253 103.807 257.467 103.162 257.867C102.363 258.373 101.408 258.747 100.557 259.173C99.6799 259.6 98.8028 260 97.9515 260.48C97.5387 260.693 97.1518 260.933 96.9712 261.387C96.0425 263.947 102.131 262.507 103.034 262.213C103.498 262.053 103.291 261.28 102.827 261.44C102.131 261.68 101.408 261.867 100.686 261.947C100.222 262 98.9318 262.293 98.4674 262.027C97.2292 261.307 99.2155 260.72 99.6283 260.507C100.273 260.187 100.918 259.84 101.589 259.52C102.311 259.147 104.065 258.72 104.401 257.893C104.71 257.147 103.885 255.707 103.653 255.013C103.524 254.56 102.776 254.773 102.93 255.253Z" fill="#161616"/>
<path d="M118.28 244.987C118.254 243.947 118.434 242.96 118.976 242.053C119.208 241.68 119.544 241.173 119.956 240.987C122.123 240.053 121.736 242.16 121.556 242.907C121.092 244.613 119.802 246 118.383 246.907C117.944 247.173 118.357 247.867 118.77 247.6C120.163 246.747 121.298 245.52 121.994 243.973C122.433 242.96 122.872 241.467 122.02 240.56C121.246 239.733 120.008 239.947 119.208 240.587C117.944 241.6 117.48 243.413 117.532 245.013C117.532 245.493 118.305 245.52 118.28 244.987Z" fill="#161616"/>
<path d="M70.8903 240.053C72.5929 238.88 75.3016 237.68 77.288 238.747C77.7266 238.987 78.1135 238.293 77.675 238.053C75.4048 236.827 72.4639 238.027 70.5034 239.36C70.0906 239.627 70.4776 240.32 70.8903 240.053Z" fill="#161616"/>
<path opacity="0.09" d="M79.455 243.867C80.2289 244.187 82.1895 245.093 83.5825 247.28C84.1758 248.213 85.6463 250.533 84.8208 253.147C84.0727 255.493 81.9573 256.533 81.4671 256.747C81.8025 256 82.2668 254.8 82.37 253.28C82.499 251.36 82.0347 249.92 81.5187 248.347C81.1576 247.2 80.5384 245.627 79.455 243.867Z" fill="#6D6C6C"/>
<path opacity="0.13" d="M71.7158 252.213C70.9935 255.12 69.652 257.013 68.9297 258.027C67.4335 260.133 65.7567 261.547 64.4668 262.427C65.4471 262.293 66.8659 261.92 68.3364 261.013C68.7491 260.747 70.6065 259.6 72.0253 257.2C72.7993 255.893 73.1862 254.693 73.3926 253.867C72.954 251.36 72.5413 248.853 72.1027 246.32C72.2575 247.627 72.3349 249.733 71.7158 252.213Z" fill="#6D6C6C"/>
<path opacity="0.07" d="M116.345 243.147C116.577 244.4 116.835 246.347 116.474 248.693C115.855 252.853 113.739 255.573 112.785 256.773C109.767 260.587 106.026 262.107 104.272 262.72C108.348 262.587 111.65 262.213 114.075 261.84C115.726 261.6 116.783 261.387 117.428 260.507C118.512 259.013 117.222 257.413 117.815 253.84C118.202 251.413 118.899 251.253 118.976 249.493C119.054 247.893 118.589 245.76 116.345 243.147Z" fill="#6D6C6C"/>
<path opacity="0.14" d="M103.524 255.333C103.704 255.627 104.298 256.613 103.988 257.547C103.911 257.76 103.704 258.24 102.492 258.88C100.428 260 99.2671 259.547 98.2868 260.693C98.2095 260.773 97.5387 261.573 97.7709 262.107C98.0031 262.613 99.035 262.56 99.9121 262.507C100.763 262.453 101.976 262.267 103.395 261.707C104.22 261.147 105.226 260.533 106.439 259.973C107.78 259.36 109.018 258.96 110.05 258.693C109.947 258.347 109.715 257.84 109.328 257.28C108.632 256.32 107.987 256.187 107.393 255.333C107.135 254.96 106.8 254.347 106.671 253.387C105.613 254.053 104.556 254.693 103.524 255.333Z" fill="#6D6C6C"/>
<path opacity="0.25" d="M121.375 240.667C121.324 241.36 121.169 242.4 120.73 243.547C119.956 245.6 118.796 246.693 118.976 246.88C119.131 247.04 120.266 246.32 120.988 245.28C121.582 244.4 121.736 243.547 121.762 243.28C121.943 242.027 121.556 241.04 121.375 240.667Z" fill="#6D6C6C"/>
<path d="M282.891 237.653C288.721 243.307 294.525 248.987 300.356 254.64C293.545 268.96 290.811 276.533 292.152 277.387C293.803 278.453 301.8 269.04 316.169 249.093C306.263 241.627 296.357 234.16 286.451 226.667C285.264 230.347 284.078 234 282.891 237.653Z" fill="#191919"/>
<path d="M257.919 155.093C255.752 158.507 256.99 161.627 258.229 173.413C259.493 185.36 258.435 184.107 259.467 192.373C261.221 206.347 265.091 216.453 268.186 224.373C268.186 224.373 272.546 235.6 281.085 245.92C281.317 246.213 281.859 246.8 282.633 247.36C283.407 247.92 285.058 249.093 286.993 248.8C289.03 248.507 290.578 246.72 291.197 245.093C291.894 243.253 291.068 242.4 291.971 240.907C292.642 239.84 293.235 240 294.938 238.667C296.125 237.707 297.647 236.507 298.369 234.48C299.169 232.187 298.55 230.107 298.369 229.493C297.827 227.733 296.795 226.613 296.512 226.267C295.248 224.853 293.287 220.88 289.366 212.933C286.322 206.8 281.549 192.907 280.027 175.493C278.686 160.027 281.008 154.56 276.751 151.227C271.721 147.28 261.505 149.44 257.919 155.093Z" fill="white"/>
<path d="M278.892 160.747C278.66 170.027 279.769 179.28 281.704 188.347C283.587 197.147 286.012 206.027 289.366 214.347C291.069 218.613 293.184 222.693 295.944 226.32C296.254 226.72 296.795 226.16 296.486 225.76C291.327 219.04 288.644 210.747 286.219 202.667C283.587 193.947 281.498 185.04 280.414 175.947C279.821 170.907 279.563 165.813 279.692 160.747C279.692 160.213 278.918 160.213 278.892 160.747Z" fill="#161616"/>
<path d="M258.022 172.533C258.074 186.8 259.906 201.147 264.214 214.747C266.329 221.413 269.038 227.92 272.417 234C274.12 237.093 276.003 240.107 278.067 242.987C279.795 245.413 281.833 248.107 284.826 248.88C287.586 249.6 290.346 248.453 291.43 245.653C292.539 242.747 291.791 238.96 294.113 236.613C294.474 236.24 293.932 235.68 293.571 236.053C291.791 237.84 291.688 240.427 291.327 242.8C291.146 243.973 290.94 245.2 290.32 246.213C289.289 247.973 287.302 248.56 285.419 248.187C282.04 247.52 279.847 244.187 277.989 241.493C276.158 238.827 274.455 236.053 272.882 233.2C266.51 221.52 262.563 208.533 260.525 195.307C259.364 187.787 258.822 180.16 258.796 172.533C258.796 172 258.022 172 258.022 172.533Z" fill="#161616"/>
<path d="M295.325 225.573C297.415 228.133 299.04 231.467 297.931 234.853C297.363 236.64 296.073 237.307 294.655 238.24C293.416 239.067 292.384 240.16 291.533 241.413C291.249 241.84 291.92 242.24 292.204 241.813C292.926 240.8 293.752 239.84 294.758 239.12C295.403 238.667 296.125 238.32 296.77 237.84C297.982 236.933 298.653 235.52 298.911 234.027C299.479 230.613 297.931 227.547 295.867 224.987C295.557 224.613 295.016 225.2 295.325 225.573Z" fill="#161616"/>
<path opacity="0.16" d="M258.513 171.92C258.461 175.44 258.564 179.12 258.822 182.987C259.751 196.613 262.563 208.427 265.787 218.08C265.787 218.08 269.838 230.053 275.229 238.427C275.823 239.333 276.958 240.853 279.254 243.867C281.627 247.013 282.323 247.787 283.587 248.347C283.768 248.427 286.993 249.813 289.16 248.187C289.753 247.76 290.217 246.72 291.172 244.667C292.152 242.56 292.642 241.44 292.874 239.867C294.139 239.813 295.067 239.093 295.196 238.267C295.351 237.253 294.216 236.4 294.113 236.347C292.565 235.253 290.424 236.16 289.469 236.347C284.748 237.227 278.841 225.6 277.061 222.08C269.709 207.333 266.02 199.973 263.414 191.813C261.892 186.773 260.009 180.053 258.513 171.92Z" fill="#6D6C6C"/>
<path opacity="0.13" d="M261.918 203.013C262.15 202.933 262.563 204.133 266.561 212.453C274.352 228.64 276.21 230.987 278.196 232.8C280.569 234.987 284.826 237.973 292.152 239.2C292.23 239.68 293.158 244.96 290.14 247.36C288.824 248.427 287.302 248.48 286.89 248.48C282.22 248.64 277.37 242.053 273.088 234.213C264.756 218.96 261.067 203.307 261.918 203.013Z" fill="#6D6C6C"/>
<path d="M226.112 239.307C222.655 246.773 219.224 254.213 215.767 261.68C200.521 259.333 192.679 258.96 192.292 260.533C191.801 262.48 202.946 267.493 225.673 275.547C229.543 263.52 233.412 251.493 237.256 239.44C233.567 239.413 229.852 239.36 226.112 239.307Z" fill="#191919"/>
<path d="M256.784 152.64C254.127 154.987 253.353 157.493 251.212 162.613C247.91 170.48 244.17 178.16 240.816 186.027C234.135 201.707 231.968 205.173 226.911 217.493C223.996 224.587 224.022 225.093 222.448 228.053C220.823 231.093 219.146 233.653 217.986 238.027C217.289 240.64 217.134 242.587 217.805 244.56C218.063 245.333 218.863 247.76 220.952 248.587C222.294 249.12 223.661 248.8 225.209 248.4C226.473 248.08 227.479 247.627 228.175 247.253C228.64 247.867 229.465 248.773 230.781 249.36C233.232 250.507 235.579 249.733 236.714 249.36C237.385 249.147 239.887 248.24 241.719 245.707C242.983 243.973 243.344 242.24 243.576 241.307C244.505 237.333 246.414 233.68 247.652 229.787C248.323 227.653 249.613 224.4 258.229 211.387C267.516 197.36 267.98 198.187 272.521 190.48C277.448 182.107 280.208 177.52 281.421 170.533C282.401 164.88 283.846 156.587 279.047 151.68C273.604 145.973 262.589 147.467 256.784 152.64Z" fill="white"/>
<path d="M281.55 157.813C283.175 173.173 275.126 187.12 266.69 199.013C262.408 205.04 257.894 210.88 253.998 217.147C249.974 223.6 246.853 230.533 244.299 237.733C243.009 241.387 242.183 246.08 238.701 248.267C235.786 250.08 231.968 249.947 229.259 247.813C228.872 247.493 228.485 248.187 228.872 248.507C233.49 252.107 240.068 250.107 242.544 244.88C244.17 241.44 245.124 237.6 246.491 234.053C248.039 230.08 249.793 226.16 251.806 222.427C259.39 208.48 270.792 197.093 277.499 182.587C281.059 174.853 283.252 166.373 282.323 157.787C282.272 157.307 281.498 157.28 281.55 157.813Z" fill="#161616"/>
<path d="M256.372 150.24C249.303 166.213 242.235 182.213 235.141 198.187C231.581 206.267 227.995 214.32 224.435 222.4C222.758 226.213 221.004 230 219.379 233.84C218.089 236.853 216.85 240.24 217.341 243.573C217.753 246.267 219.379 249.12 222.242 249.333C224.306 249.493 226.395 248.48 228.304 247.84C230.549 247.093 232.819 246.32 235.063 245.573C235.528 245.413 235.321 244.64 234.857 244.8C233.077 245.387 231.323 245.973 229.543 246.587C227.685 247.2 225.828 247.973 223.919 248.4C220.178 249.2 218.114 245.893 217.985 242.427C217.856 238.587 219.714 234.88 221.21 231.493C222.861 227.787 224.486 224.08 226.137 220.347C232.716 205.493 239.294 190.64 245.846 175.787C249.561 167.387 253.276 158.987 256.991 150.613C257.249 150.16 256.578 149.76 256.372 150.24Z" fill="#161616"/>
<path d="M228.201 248C228.459 248.16 228.717 248.347 228.949 248.533C229.104 248.667 229.336 248.693 229.491 248.533C229.62 248.4 229.646 248.107 229.491 247.973C229.207 247.733 228.898 247.52 228.588 247.307C228.175 247.04 227.788 247.733 228.201 248Z" fill="#161616"/>
<path opacity="0.09" d="M270.147 147.893C267.026 149.493 267.98 156 267.516 163.12C267.181 168.373 266.329 169.973 254.488 197.893C244.531 221.387 243.344 224.48 239.449 230.587C234.625 238.133 229.775 243.813 226.266 247.573C227.092 247.52 227.917 247.467 228.743 247.413C229.285 247.947 230.162 248.64 231.374 249.173C231.968 249.44 234.625 250.613 237.411 249.653C240.145 248.72 241.487 246.267 242.519 244.373C244.066 241.52 244.479 238.987 244.686 237.813C245.253 234.693 247.033 231.147 250.567 224.027C255.34 214.453 259.983 210.533 268.548 197.44C275.565 186.667 279.434 180.613 281.266 171.493C282.736 164.213 282.298 157.947 281.73 153.867C277.938 150.16 273.088 146.373 270.147 147.893Z" fill="#6D6C6C"/>
<path opacity="0.16" d="M281.292 166.64C280.853 166.453 278.686 171.84 274.326 179.787C268.316 190.667 266.226 191.68 258.203 204.133C250.103 216.72 250.232 218.827 241.77 231.68C237.385 238.347 233.515 243.627 230.91 247.067C230.162 248.32 230.291 248.907 230.446 249.147C231.09 250.293 234.341 249.52 235.863 249.147C237.824 248.667 238.83 248.427 239.887 247.707C242.132 246.187 242.622 243.813 244.221 238.907C245.073 236.267 246.156 233.707 247.007 231.067C248.865 225.413 251.496 221.44 255.83 215.04C270.689 193.2 270.637 194.427 273.191 189.573C279.305 178.053 281.911 166.907 281.292 166.64Z" fill="#6D6C6C"/>
<path d="M207.976 73.0398C207.306 74.2132 207.177 75.3332 207.125 75.8398C206.867 78.0265 207.589 79.7332 207.899 80.3998C209.601 84.2132 213.497 85.5198 214.193 85.7332C214.658 87.5198 215.122 89.3065 215.638 91.1198C216.799 95.3598 218.011 99.5198 219.25 103.573C220.901 103.333 222.552 103.093 224.203 102.853C223.738 100.586 223.171 98.7732 222.758 97.5732C221.52 93.8932 220.359 92.0532 219.353 88.0532C219.095 86.9865 218.914 86.0798 218.811 85.5198C219.224 85.2265 219.791 84.7198 220.333 83.9998C222.474 81.1198 221.958 77.5998 221.855 76.8532C221.675 75.7065 221.391 73.6265 219.688 71.8665C217.521 69.5998 214.735 69.5465 214.322 69.5465C211.82 69.4665 209.24 70.7998 207.976 73.0398Z" fill="#652D69"/>
<path d="M209.472 75.2C209.369 75.52 209.085 76.6667 209.395 78.08C209.859 80.16 211.459 82.0534 213.6 82.6934C215.277 83.2 217.831 83.1467 219.198 81.4134C220.152 80.2134 220.127 78.7734 220.101 77.44C220.075 75.9467 220.023 73.6533 218.269 72.16C216.154 70.3467 213.342 71.2533 213.161 71.3067C211.33 71.92 209.963 73.44 209.472 75.2Z" fill="white"/>
<path d="M214.142 92.0265C214.064 92.4265 213.961 93.0132 213.961 93.6799C213.961 93.9999 213.961 94.8799 214.271 96.2132C214.477 97.0399 214.606 97.2532 215.457 99.3865C216.386 101.707 216.567 102.347 217.263 102.64C217.727 102.853 218.218 102.773 218.527 102.693C217.779 101.467 217.831 100.747 218.011 100.32C218.166 99.9199 218.424 99.8399 218.579 99.3332C218.63 99.1465 218.708 98.7999 218.424 97.5999C218.14 96.4265 218.011 96.4265 217.934 95.7332C217.831 94.9332 218.011 94.9065 217.908 94.1599C217.882 94.0265 217.779 93.3065 217.341 92.4799C216.928 91.7332 216.67 91.2532 216.154 91.0932C215.483 90.9332 214.735 91.3332 214.142 92.0265Z" fill="white"/>
<path d="M220.565 91.7066C219.92 92.3733 219.017 93.6266 219.379 94.2933C219.688 94.8266 220.772 94.8799 221.313 94.9066C221.7 94.9333 222.01 94.9066 222.242 94.8799C222.345 95.1733 222.448 95.4399 222.526 95.7333C223.248 97.9199 223.867 100.08 224.383 102.213C224.461 102.507 224.538 102.8 224.59 103.067C224.357 103.413 223.919 103.947 223.222 104.373C222.268 104.933 221.365 105.013 220.926 105.013C221.417 106.24 222.139 107.787 223.222 109.467C223.532 109.947 224.435 111.36 225.931 113.04C227.35 114.64 228.769 116.24 231.039 117.627C234.109 119.52 236.998 119.947 238.597 120.16C240.997 120.48 242.88 120.347 243.834 120.24C244.66 120.16 247.936 119.733 251.728 117.733C255.262 115.867 257.403 113.627 259.029 111.893C260.293 110.56 262.46 108.187 264.343 104.427C265.633 101.813 266.123 99.8666 267.052 96.0533C268.367 90.6666 269.012 87.9733 267.722 86.7466C266.639 85.7333 264.73 86.1599 263.182 86.5333C260.628 87.1199 258.9 88.5333 256.81 90.2933C255.752 91.1999 254.824 92.1333 253.044 93.9466C249.277 97.7866 249.045 98.3999 246.981 100.16C245.743 101.227 244.737 101.92 242.725 103.28C238.701 106.053 237.565 106.293 236.688 106.347C235.089 106.427 233.876 105.867 232.767 105.36C229.465 103.813 227.892 101.093 227.401 100.24C226.757 99.0933 226.266 98.2133 226.241 96.9866C226.215 95.5733 226.808 95.1199 226.834 93.3866C226.86 92.3733 226.885 90.9599 226.06 90.2399C224.77 89.0666 222.036 90.2133 220.565 91.7066Z" fill="white"/>
<path d="M225.802 98.4532C228.227 102.773 231.967 107.307 237.333 106.64C237.823 106.587 237.823 105.787 237.333 105.84C232.225 106.48 228.769 102.133 226.447 98.0532C226.215 97.5999 225.544 97.9999 225.802 98.4532Z" fill="#161616"/>
<path d="M231.684 107.6C235.089 107.92 238.236 106.4 241.1 104.693C244.066 102.933 246.801 100.8 249.277 98.3466C254.23 93.4132 259.39 85.4665 267.309 86.9332C267.8 87.0132 268.006 86.2399 267.516 86.1599C260.473 84.8532 255.262 90.6932 250.902 95.4666C248.349 98.2666 245.588 100.827 242.441 102.907C239.242 105.04 235.605 107.147 231.684 106.8C231.194 106.747 231.194 107.547 231.684 107.6Z" fill="#161616"/>
<path d="M219.611 103.627C223.403 111.067 228.072 118.4 236.559 120.267C244.376 122 252.321 119.067 258.048 113.52C261.402 110.267 263.982 106.267 265.839 101.947C266.045 101.493 265.375 101.067 265.168 101.547C262.047 108.747 256.758 115.307 249.535 118.293C242.26 121.28 233.618 120.32 227.84 114.64C224.589 111.44 222.371 107.307 220.281 103.227C220.049 102.747 219.378 103.173 219.611 103.627Z" fill="#161616"/>
<path d="M221.7 90.5865C220.385 91.1732 218.527 92.9599 219.25 94.6399C220.049 96.4532 222.887 94.8799 223.893 94.1065C224.28 93.8132 223.893 93.1199 223.506 93.4132C222.913 93.8665 220.152 95.5732 219.895 93.9999C219.688 92.8265 221.236 91.6799 222.113 91.2799C222.552 91.0665 222.139 90.3732 221.7 90.5865Z" fill="#161616"/>
<path d="M221.855 91.3333C222.835 90.5599 224.383 89.3333 225.621 90.4533C226.627 91.3866 226.421 93.0133 226.24 94.2133C226.008 95.7599 225.415 97.9199 226.369 99.3066C226.653 99.7333 227.324 99.3333 227.04 98.9066C226.111 97.5466 226.963 95.0933 227.118 93.6C227.247 92.48 227.195 91.3333 226.576 90.3999C225.234 88.3733 222.964 89.4666 221.468 90.6399C221.081 90.9599 221.468 91.6533 221.855 91.3333Z" fill="#161616"/>
<path d="M221.417 94.8799C222.294 97.5732 223.093 100.293 223.867 103.04C223.945 102.88 224.048 102.72 224.125 102.56C222.371 102.987 220.565 102.533 218.914 103.413C219.095 103.493 219.301 103.573 219.482 103.653C219.172 102.507 218.785 101.36 218.398 100.24C218.218 99.7599 217.47 99.9732 217.65 100.453C218.063 101.573 218.424 102.72 218.734 103.867C218.811 104.133 219.069 104.213 219.301 104.107C220.849 103.28 222.681 103.733 224.332 103.333C224.538 103.28 224.667 103.04 224.59 102.853C223.816 100.107 223.016 97.4132 222.139 94.6932C222.01 94.1599 221.262 94.3732 221.417 94.8799Z" fill="#161616"/>
<path d="M219.017 103.92C220.152 105.84 223.687 105.12 224.486 103.2C224.693 102.72 224.022 102.32 223.816 102.8C223.274 104.133 220.514 104.933 219.662 103.52C219.43 103.067 218.759 103.467 219.017 103.92Z" fill="#161616"/>
<path d="M219.714 104.16C221.03 104.453 222.319 104.373 223.583 103.893C224.048 103.707 223.841 102.933 223.377 103.12C222.242 103.547 221.081 103.627 219.92 103.387C219.43 103.28 219.224 104.053 219.714 104.16Z" fill="#161616"/>
<path d="M219.482 104.027C220.41 102.56 222.164 102.16 223.609 103.04C224.048 103.307 224.435 102.613 223.996 102.347C222.139 101.253 219.972 101.787 218.785 103.627C218.527 104.053 219.198 104.48 219.482 104.027Z" fill="#161616"/>
<path d="M220.901 103.547C221.21 102.533 222.526 103.093 223.145 103.387C223.584 103.6 223.996 102.907 223.532 102.693C222.423 102.16 220.643 101.707 220.152 103.333C220.023 103.84 220.772 104.053 220.901 103.547Z" fill="#161616"/>
<path d="M217.676 102.293C217.005 101.84 216.567 101.067 216.592 100.213C216.618 99.8399 216.721 99.4933 216.876 99.1733C216.954 99.0399 217.676 98.0799 217.856 98.2133C218.243 98.5333 218.785 97.9733 218.398 97.6533C217.418 96.8533 216.231 98.4799 215.973 99.3599C215.535 100.773 216.128 102.187 217.289 102.987C217.702 103.253 218.089 102.56 217.676 102.293Z" fill="#161616"/>
<path d="M217.908 100.747C219.043 100.08 219.224 98.5066 218.218 97.6266C217.831 97.3066 217.289 97.8666 217.676 98.1866C218.295 98.7199 218.243 99.6266 217.521 100.053C217.082 100.32 217.469 101.013 217.908 100.747Z" fill="#161616"/>
<path d="M216.799 102.533C217.366 103.12 218.269 103.253 218.94 102.8C219.353 102.533 218.966 101.84 218.553 102.107C218.166 102.373 217.676 102.32 217.34 101.973C217.005 101.6 216.463 102.16 216.799 102.533Z" fill="#161616"/>
<path d="M216.18 99.8665C215.715 99.1465 215.561 98.3199 215.741 97.4665C215.948 96.4532 216.825 95.2265 217.857 96.2665C218.218 96.6399 218.759 96.0532 218.398 95.7065C217.392 94.6665 216.154 94.9598 215.432 96.1865C214.683 97.4399 214.761 99.0665 215.535 100.267C215.793 100.693 216.463 100.293 216.18 99.8665Z" fill="#161616"/>
<path d="M215.277 98.0266C215.225 97.6532 215.096 97.3599 214.915 97.0132C214.58 96.3732 214.503 95.8932 214.683 95.1732C214.993 93.9466 215.999 93.0399 217.211 93.7866C217.65 94.0533 218.037 93.3599 217.598 93.0933C216.489 92.4266 215.07 92.6933 214.374 93.8399C214.013 94.4266 213.78 95.1999 213.78 95.8932C213.755 96.7732 214.4 97.3866 214.529 98.2399C214.606 98.7466 215.354 98.5332 215.277 98.0266Z" fill="#161616"/>
<path d="M214.529 94.1332C214.116 93.5199 214.09 92.6666 214.606 92.1066C215.122 91.5466 215.947 91.5199 216.567 91.9199C216.979 92.1866 217.366 91.4932 216.953 91.2266C216.051 90.6399 214.812 90.7466 214.064 91.5466C213.316 92.3466 213.265 93.6532 213.858 94.5599C214.142 94.9599 214.812 94.5599 214.529 94.1332Z" fill="#161616"/>
<path d="M216.928 93.6799C217.495 93.9732 217.702 94.7999 217.263 95.3066C216.928 95.6799 217.469 96.2666 217.805 95.8666C218.553 95.0132 218.347 93.5199 217.315 92.9866C216.876 92.7732 216.463 93.4399 216.928 93.6799Z" fill="#161616"/>
<path d="M216.257 91.9466C216.747 92.1866 217.031 92.7199 216.928 93.3066C216.825 93.8133 217.573 94.0266 217.676 93.5199C217.856 92.6133 217.444 91.6799 216.644 91.2799C216.206 91.0133 215.819 91.7066 216.257 91.9466Z" fill="#161616"/>
<path d="M217.805 96.6133C217.985 96.9066 218.037 97.28 217.882 97.6266C217.805 97.8133 217.831 98.0533 218.011 98.1866C218.166 98.2933 218.45 98.24 218.553 98.0533C218.811 97.4666 218.785 96.8 218.476 96.24C218.218 95.76 217.547 96.16 217.805 96.6133Z" fill="#161616"/>
<path d="M213.987 86.0533C214.296 87.8667 214.683 89.6534 215.173 91.44C215.302 91.9467 216.051 91.7334 215.922 91.2267C215.431 89.4667 215.045 87.6533 214.735 85.84C214.658 85.3333 213.909 85.5467 213.987 86.0533Z" fill="#161616"/>
<path d="M218.321 85.6266C218.94 87.7599 219.559 89.8666 220.152 91.9999C220.307 92.4799 221.03 92.2932 220.901 91.7866C220.281 89.6532 219.662 87.5466 219.069 85.4132C218.914 84.9066 218.166 85.1199 218.321 85.6266Z" fill="#161616"/>
<path d="M214.064 85.2799C210.788 84.9599 207.796 80.6399 207.331 77.4932C206.764 73.6799 210.195 70.5332 213.6 69.8666C220.901 68.4799 224.77 81.7066 218.527 85.1732C218.089 85.4132 218.476 86.1066 218.914 85.8666C224.332 82.8532 222.861 73.3066 218.321 70.1866C212.852 66.4266 204.648 72.4799 206.918 79.0399C207.976 82.0799 210.736 85.7332 214.064 86.0532C214.554 86.1332 214.554 85.3332 214.064 85.2799Z" fill="#161616"/>
<path d="M214.038 82.4799C211.536 81.8933 209.576 79.6266 209.601 76.9066C209.627 74.0266 211.923 71.4666 214.735 71.36C218.114 71.2533 219.765 74.6399 219.714 77.7333C219.688 79.5199 219.43 81.2266 217.65 81.9466C216.283 82.4799 214.787 82.9599 213.342 82.3733C212.878 82.1866 212.671 82.9599 213.136 83.1466C214.787 83.8133 216.696 83.2533 218.269 82.5333C219.765 81.8399 220.204 80.6133 220.41 78.9866C220.823 75.44 219.482 71.0933 215.535 70.6133C212.284 70.2133 209.395 72.8266 208.931 76.1066C208.466 79.4399 210.762 82.5066 213.884 83.2533C214.322 83.3599 214.529 82.5866 214.038 82.4799Z" fill="#161616"/>
<path d="M214.864 71.0666C213.806 74.5066 212.749 77.9733 211.717 81.4133C211.562 81.8933 212.31 82.1066 212.465 81.6266C213.523 78.1866 214.58 74.7199 215.612 71.2799C215.767 70.7999 215.019 70.5866 214.864 71.0666Z" fill="#161616"/>
<path d="M216.386 74.9065C215.586 77.3865 214.709 79.8398 213.806 82.2665C213.626 82.7465 214.374 82.9598 214.554 82.4798C215.457 80.0532 216.334 77.5732 217.134 75.1199C217.289 74.6132 216.541 74.3999 216.386 74.9065Z" fill="#161616"/>
<path opacity="0.12" d="M267.464 86.8531C266.329 89.8131 264.343 94.2131 260.938 98.9065C257.274 104 253.121 109.76 245.64 112.266C243.783 112.88 238.236 114.666 231.58 112.533C225.776 110.666 222.294 106.826 220.926 105.146C221.571 106.933 222.784 109.68 225.054 112.4C226.24 113.813 230.6 118.906 238.107 120.186C239.036 120.346 243.886 121.12 249.535 118.88C255.752 116.426 259.106 111.866 261.454 108.64C263.105 106.373 266.045 102.213 267.232 95.9198C267.929 92.1865 267.748 88.9865 267.464 86.8531Z" fill="#6D6C6C"/>
<path opacity="0.21" d="M226.318 112.8C228.253 114.08 231.761 116.027 236.482 116.56C242.338 117.227 246.775 115.333 250.026 113.973C256.475 111.227 260.989 107.093 263.827 103.867C262.847 106.267 260.783 110.373 256.681 113.973C254.746 115.68 248.065 121.547 238.984 120.187C232.071 119.147 227.737 114.48 226.318 112.8Z" fill="#6D6C6C"/>
<path d="M262.898 84.24C258.616 87.52 257.042 91.8934 255.262 96.7467C251.96 105.76 252.502 112.933 252.863 124.293C253.095 131.52 253.302 142 253.095 155.067C257.532 156.213 263.105 157.2 269.554 157.44C274.559 157.6 279.021 157.28 282.788 156.747C284.903 146.693 287.122 138.587 288.773 132.96C294.293 114.133 299.891 100.347 294.783 89.3067C294.525 88.7734 294.268 88.32 293.984 87.92C288.102 79.3334 271.618 77.5467 262.898 84.24Z" fill="#50D8C3"/>
<path opacity="0.15" d="M281.524 80.7733C281.188 82.72 280.621 85.7867 279.77 89.4667C274.945 110.267 270.096 111.413 269.244 122.933C268.367 134.533 272.907 138.72 269.115 147.44C267.129 152 264.085 155.04 261.841 156.907C265.426 157.173 269.27 157.333 273.372 157.307C276.596 157.28 279.641 157.147 282.53 156.907C284.361 148.667 286.116 142.08 287.431 137.467C288.076 135.2 288.85 132.507 290.32 127.493C292.72 119.28 293.339 117.253 294.345 113.36C295.815 107.573 296.563 104.613 296.718 101.68C296.976 97.28 297.26 92.2667 294.216 88.0533C292.281 85.36 289.624 83.92 288.205 83.12C285.574 81.6533 283.149 81.04 281.524 80.7733Z" fill="#6D6C6C"/>
<path opacity="0.17" d="M292.307 117.733C291.765 117.52 289.005 125.093 284.155 135.36C279.64 144.907 275.358 152.427 272.366 157.413C275.745 157.147 279.15 156.907 282.53 156.64C283.407 153.093 284.748 147.787 286.425 141.333C290.553 125.44 292.849 117.92 292.307 117.733Z" fill="#6D6C6C"/>
<path d="M290.424 86.7198C289.573 87.0398 288.36 87.5732 286.967 88.3998C282.066 91.3065 279.46 95.3065 277.861 97.7065C277.861 97.7065 272.469 105.813 264.162 116.693C261.583 120.08 259.003 123.227 255.83 126.64C249.252 133.733 246.337 135.2 245.073 135.76C241.925 137.2 239.165 138.453 235.528 138.16C233.128 137.973 231.632 137.2 229.981 138.24C228.227 139.333 227.066 141.947 227.298 143.387C227.324 143.547 227.427 144.053 227.479 144.773C227.505 144.96 227.531 145.6 227.479 146.533C227.402 147.973 227.247 147.84 227.298 148.373C227.453 149.52 228.227 150.107 227.995 150.48C227.84 150.747 227.427 150.507 227.118 150.853C226.757 151.227 226.911 151.947 226.937 152.053C227.118 152.88 227.788 153.36 228.072 153.52C229.182 154.267 229.93 153.867 232.742 153.973C234.728 154.053 235.321 154.293 236.302 153.787C236.56 153.653 236.998 153.413 237.772 152.507C239.991 149.947 239.733 148.24 241.667 146.613C242.364 146.027 243.06 145.707 243.499 145.52C244.918 144.88 245.846 144.907 247.214 144.587C248.142 144.4 249.071 144 250.928 143.2C253.947 141.92 256.268 140.667 257.171 140.16C262.615 137.12 267.542 133.28 268.599 132.427C274.249 127.973 277.861 124.213 282.556 119.333C285.935 115.84 289.495 111.893 292.952 106.533C294.01 104.88 295.893 101.813 296.512 97.4932C296.796 95.5465 297.08 93.3598 295.996 91.1465C294.5 87.9198 291.224 86.9332 290.424 86.7198Z" fill="white"/>
<path d="M289.65 86.4799C284.774 88.0533 281.059 92.6133 278.015 96.6133C274.558 101.173 271.437 105.973 268.083 110.587C264.498 115.52 260.783 120.347 256.733 124.88C252.889 129.147 248.684 133.36 243.499 135.813C240.481 137.227 237.153 138.027 233.851 137.733C231.968 137.573 229.568 137.093 228.408 139.067C228.15 139.493 228.82 139.92 229.078 139.467C229.775 138.267 231.219 138.293 232.406 138.4C233.644 138.48 234.857 138.64 236.095 138.587C238.546 138.453 240.971 137.813 243.241 136.827C248.065 134.72 252.089 131.093 255.701 127.227C263.492 118.907 269.889 109.413 276.493 100.107C278.351 97.4933 280.26 94.9333 282.452 92.6133C284.568 90.3733 286.967 88.2133 289.934 87.2533C290.321 87.0933 290.114 86.3199 289.65 86.4799Z" fill="#161616"/>
<path d="M289.573 86.9866C293.881 86.3733 296.28 91.0933 296.254 94.9066C296.228 98.6933 294.68 102.427 292.875 105.653C289.521 111.707 284.645 116.88 279.924 121.813C270.586 131.493 259.7 140.267 246.827 144.187C245.253 144.667 243.344 144.827 241.951 145.787C240.635 146.693 239.965 148.453 239.062 149.76C238.391 150.72 237.669 151.653 236.895 152.533C235.889 153.653 234.96 153.76 233.593 153.653C232.561 153.573 231.529 153.493 230.471 153.413C229.414 153.333 227.918 153.413 227.402 152.24C227.195 151.76 226.524 152.187 226.731 152.64C227.273 153.893 228.562 154.053 229.749 154.16C230.704 154.24 231.658 154.32 232.613 154.373C233.541 154.453 234.599 154.667 235.528 154.48C237.075 154.16 238.236 152.16 239.139 150.987C240.223 149.547 241.126 147.173 242.699 146.267C243.576 145.76 244.686 145.627 245.64 145.36C246.595 145.093 247.523 144.827 248.452 144.507C250.129 143.947 251.806 143.28 253.431 142.56C256.836 141.04 260.086 139.227 263.208 137.147C269.451 132.987 275.126 127.947 280.363 122.533C285.677 117.04 291.275 111.147 294.629 104.08C296.383 100.373 297.828 95.8933 296.693 91.7866C295.79 88.48 292.875 85.76 289.418 86.24C288.876 86.2933 289.082 87.0666 289.573 86.9866Z" fill="#161616"/>
<path d="M227.556 143.2C227.788 141.573 231.787 141.733 232.845 141.627C234.289 141.493 235.579 141.173 236.714 140.187C237.101 139.84 236.534 139.28 236.172 139.627C234.521 141.067 232.251 140.773 230.239 141.04C229.182 141.2 227.015 141.6 226.834 142.96C226.731 143.493 227.479 143.707 227.556 143.2Z" fill="#161616"/>
<path d="M226.782 143.307C228.046 145.893 230.781 147.307 233.515 146.693C234.006 146.587 233.799 145.813 233.309 145.92C230.884 146.48 228.537 145.173 227.427 142.907C227.221 142.453 226.55 142.853 226.782 143.307Z" fill="#161616"/>
<path d="M227.144 144.053C226.628 145.44 227.221 146.987 228.356 147.84C229.646 148.827 231.323 148.72 232.819 148.453C233.309 148.373 233.103 147.6 232.613 147.68C231.452 147.893 230.136 148 229.053 147.36C227.995 146.747 227.453 145.44 227.866 144.267C228.072 143.787 227.324 143.573 227.144 144.053Z" fill="#161616"/>
<path d="M227.195 146.267C226.473 147.493 226.782 149.12 227.788 150.107C228.975 151.28 230.781 151.147 232.148 150.453C232.587 150.24 232.2 149.547 231.761 149.76C230.704 150.267 229.336 150.427 228.382 149.573C227.582 148.853 227.324 147.627 227.866 146.667C228.124 146.213 227.453 145.813 227.195 146.267Z" fill="#161616"/>
<path d="M227.531 152.347C227.015 151.493 227.711 150.427 228.691 150.8C229.156 150.987 229.362 150.213 228.898 150.027C227.298 149.413 226.034 151.333 226.886 152.747C227.118 153.173 227.788 152.773 227.531 152.347Z" fill="#161616"/>
<path d="M228.382 139.6C229.826 139.067 231.348 139.787 231.968 141.227C232.174 141.707 232.845 141.28 232.638 140.827C231.89 139.093 229.93 138.187 228.175 138.853C227.711 139.013 227.917 139.787 228.382 139.6Z" fill="#161616"/>
<path d="M228.098 139.12C227.066 139.893 227.092 141.733 228.253 142.373C228.691 142.613 229.078 141.92 228.64 141.68C228.021 141.333 227.866 140.24 228.485 139.813C228.898 139.493 228.511 138.8 228.098 139.12Z" fill="#161616"/>
<path d="M228.33 141.333C228.382 140.747 228.562 140.267 228.898 139.787C228.666 139.787 228.459 139.787 228.227 139.787C228.485 140.24 228.485 140.667 228.227 141.093C228.459 141.12 228.691 141.147 228.924 141.2C228.872 141.04 228.846 139.813 229.156 140.027C229.388 140.187 228.872 141.013 228.769 141.2C229.001 141.2 229.207 141.2 229.44 141.2C229.336 141.013 229.259 140.827 229.259 140.613C229.362 140.027 229.517 139.973 229.698 140.48C229.827 140.587 229.955 140.667 230.059 140.773C229.981 140.48 230.059 140.32 230.291 140.373C230.523 140.267 230.575 140.347 230.446 140.587C230.626 140.64 230.807 140.693 230.987 140.72C231.065 140.8 231.116 140.88 231.194 140.96C231.116 141.467 231.865 141.68 231.942 141.173C232.045 140.507 231.452 139.6 230.781 140.213C230.213 140.747 230.781 141.733 231.503 141.333C232.2 140.933 231.916 139.84 231.194 139.653C230.368 139.467 229.955 140.48 230.317 141.12C230.42 141.307 230.678 141.36 230.858 141.253C231.503 140.853 231.452 139.733 230.729 139.44C229.801 139.04 229.207 140.187 229.336 140.987C229.362 141.173 229.543 141.28 229.698 141.28C230.781 141.333 231.039 139.68 230.033 139.333C228.64 138.853 228.253 140.667 228.769 141.627C228.924 141.92 229.285 141.867 229.44 141.627C229.801 141.093 230.549 139.173 229.362 139.067C228.253 138.987 227.943 140.64 228.175 141.44C228.279 141.76 228.717 141.84 228.872 141.547C229.259 140.88 229.259 140.107 228.872 139.413C228.717 139.147 228.356 139.173 228.201 139.413C227.789 140 227.608 140.64 227.531 141.36C227.505 141.867 228.279 141.84 228.33 141.333Z" fill="#161616"/>
<path d="M227.685 142.213C229.001 142.453 232.2 142.72 232.535 140.747C232.613 140.24 231.864 140.027 231.787 140.533C231.555 141.893 228.795 141.6 227.892 141.44C227.402 141.36 227.195 142.133 227.685 142.213Z" fill="#161616"/>
<path d="M230.807 141.813C231.787 145.893 231.684 150.08 230.471 154.08C230.317 154.56 231.065 154.773 231.219 154.293C232.458 150.16 232.587 145.813 231.555 141.6C231.426 141.093 230.678 141.307 230.807 141.813Z" fill="#161616"/>
<path d="M230.652 141.867C230.832 143.893 230.936 145.893 230.987 147.92C231.039 149.867 231.168 151.867 230.549 153.733C230.394 154.213 231.142 154.427 231.297 153.947C231.89 152.16 231.813 150.293 231.787 148.427C231.735 146.24 231.632 144.053 231.452 141.867C231.374 141.36 230.6 141.36 230.652 141.867Z" fill="#161616"/>
<path d="M231.658 141.84C232.226 142.267 232.122 144.373 232.148 145.04C232.174 145.947 232.174 146.827 232.122 147.733C232.019 149.653 231.735 151.573 231.271 153.44C231.142 153.947 231.89 154.16 232.019 153.653C232.587 151.307 232.896 148.933 232.922 146.507C232.922 145.28 232.871 144.053 232.742 142.827C232.664 142.107 232.613 141.573 232.045 141.147C231.632 140.853 231.245 141.547 231.658 141.84Z" fill="#161616"/>
<path d="M231.478 141.627C231.813 143.787 231.916 145.947 231.761 148.107C231.736 148.613 232.509 148.613 232.535 148.107C232.69 145.867 232.587 143.627 232.226 141.413C232.148 140.907 231.4 141.12 231.478 141.627Z" fill="#161616"/>
<path d="M229.594 141.787C230.446 144.747 230.781 147.813 230.549 150.907C230.497 151.707 229.697 155.467 231.787 154.453C232.561 154.08 232.638 153.147 232.716 152.4C232.87 150.88 232.896 149.36 232.896 147.84C232.896 145.44 233.206 142.533 231.864 140.453C231.581 140.027 230.91 140.427 231.194 140.853C232.303 142.587 232.097 144.827 232.122 146.827C232.122 147.92 232.122 149.013 232.097 150.107C232.071 150.613 232.045 151.12 232.019 151.627C231.993 151.893 231.839 154.08 231.09 153.173C231.09 153.173 231.245 152 231.271 151.867C231.323 151.387 231.374 150.88 231.4 150.4C231.452 149.413 231.452 148.427 231.4 147.467C231.297 145.467 230.936 143.493 230.394 141.573C230.213 141.067 229.465 141.28 229.594 141.787Z" fill="#161616"/>
<path d="M230.549 141.68C230.704 142.96 230.833 144.24 230.987 145.493C231.039 146 231.813 146 231.761 145.493C231.606 144.213 231.478 142.933 231.323 141.68C231.245 141.173 230.471 141.173 230.549 141.68Z" fill="#161616"/>
<path d="M229.775 140.907C230.317 142.347 230.755 143.84 231.039 145.36C231.142 145.867 231.89 145.653 231.787 145.147C231.503 143.627 231.09 142.133 230.523 140.693C230.342 140.213 229.594 140.427 229.775 140.907Z" fill="#161616"/>
<path opacity="0.15" d="M295.067 89.5732C294.087 89.5732 293.829 94.9599 292.436 99.5466C291.223 103.52 289.16 106.773 280.389 115.627C268.212 127.893 261.918 134.107 251.547 139.493C247.162 141.76 243.318 143.227 240.635 144.16C239.784 144.933 236.972 147.28 232.87 147.28C230.858 147.28 229.233 146.72 228.227 146.24C228.046 146.347 227.479 146.693 227.221 147.413C226.937 148.187 227.143 149.093 227.711 149.76C227.505 149.947 226.937 150.587 226.963 151.44C226.989 152.427 227.737 153.04 227.969 153.253C228.846 154 230.342 154.027 233.232 154.027C233.98 154.027 235.063 154.027 236.379 154.027C236.869 153.493 237.591 152.667 238.391 151.573C240.3 148.907 240.506 147.573 241.899 146.373C243.499 145.013 245.356 144.96 246.156 144.827C253.044 143.6 261.583 137.733 266.355 134.453C273.965 129.227 278.299 124.293 286.941 114.48C286.941 114.48 291.533 109.253 295.093 101.253C295.635 100.053 296.796 97.2532 296.46 93.7332C296.28 92.0532 295.738 89.5999 295.067 89.5732Z" fill="#6D6C6C"/>
<path d="M284.207 62.6665C284.413 69.1199 284.181 72.7732 285.239 78.9332C285.729 81.8132 286.322 84.1332 286.761 85.6799C284.104 86.5599 279.641 87.6265 274.172 87.0132C270.586 86.6132 267.671 85.6266 265.581 84.7199C266.536 82.8532 267.697 80.1065 268.342 76.6399C268.909 73.6265 268.909 71.0132 268.78 69.0399C266.097 67.9199 263.414 66.7732 260.731 65.6532C260.499 64.2399 260.293 62.8265 260.061 61.4399C259.313 61.1999 258.539 60.9599 257.791 60.7199C258.797 59.1465 260.37 56.6665 262.228 53.5732C265.71 47.7332 265.917 46.8265 267.31 45.6799C271.076 42.5332 277.99 41.7332 281.575 44.9599C283.691 46.8799 283.897 52.1599 284.207 62.6665Z" fill="white" stroke="#161616" stroke-width="2.31884" stroke-miterlimit="10"/>
<path d="M257.739 61.1732C259.158 61.5999 260.602 61.8666 262.073 62.0266C262.563 62.0799 262.563 61.2799 262.073 61.2266C260.68 61.0666 259.287 60.7999 257.945 60.3999C257.455 60.2666 257.249 61.0399 257.739 61.1732Z" fill="#161616"/>
<path d="M260.06 49.6265C261.015 49.3865 262.047 49.9199 262.408 50.8799C262.589 51.3599 263.337 51.1465 263.156 50.6665C262.64 49.2799 261.273 48.5065 259.88 48.8532C259.364 48.9865 259.57 49.7599 260.06 49.6265Z" fill="#161616"/>
<path d="M265.865 52.1599C267.026 52.1066 268.083 52.7999 268.47 53.9199C268.625 54.3999 269.373 54.1866 269.219 53.7066C268.728 52.2399 267.387 51.2533 265.891 51.3333C265.375 51.3866 265.375 52.1866 265.865 52.1599Z" fill="#161616"/>
<path d="M266.123 55.5465C265.942 55.1465 266.02 54.7998 266.071 54.3731C266.149 54.2665 266.149 54.2131 266.071 54.2665C265.994 54.2931 265.994 54.3465 266.071 54.4265C266.097 54.6131 266.149 54.7998 266.175 54.9865C266.175 55.1198 266.123 55.3865 266.149 55.4931C266.2 55.5465 266.252 55.5998 266.304 55.6531C266.304 55.5731 266.329 55.4931 266.329 55.4131C266.381 55.0131 266.432 54.6131 266.484 54.1865C266.536 53.7865 265.917 53.6531 265.762 53.9731C265.633 54.2398 265.581 54.4798 265.581 54.7731C265.607 55.2798 266.381 55.2798 266.355 54.7731C266.355 54.6131 266.355 54.5331 266.432 54.3731C266.2 54.2931 265.942 54.2398 265.71 54.1598C265.659 54.6398 265.53 55.1465 265.53 55.6265C265.53 55.9731 265.71 56.2665 266.046 56.3198C266.897 56.4531 266.974 55.3331 266.923 54.7198C266.845 54.1598 266.432 52.9598 265.684 53.5998C265.039 54.1331 265.194 55.2798 265.478 55.9465C265.659 56.3998 266.329 55.9998 266.123 55.5465Z" fill="#161616"/>
<path d="M265.865 46.9866C266.381 45.7333 267.413 43.76 269.348 41.92C270.018 41.28 271.463 39.92 273.398 39.2533C277.061 38 281.833 39.4666 284.671 43.0133C287.457 46.48 287.999 51.4933 286.116 55.7867C279.383 52.8533 272.624 49.92 265.865 46.9866Z" fill="#85488A"/>
<path d="M254.385 43.76C264.833 48.1067 275.281 52.4267 285.703 56.7734C287.096 57.3601 287.689 55.0401 286.322 54.4534C275.874 50.1067 265.426 45.7867 255.004 41.44C253.637 40.88 253.018 43.2 254.385 43.76Z" fill="#161616"/>
<path d="M279.202 53.6C277.112 53.8133 275.668 54.8533 273.965 56.1067C270.379 58.7733 270.869 60.24 268.419 61.84C264.523 64.4 261.944 61.5733 258.409 64.1333C255.391 66.32 254.746 70.16 254.617 71.0667C254.488 71.92 254.05 75.4133 256.139 78.4533C257.945 81.0933 260.963 82.4 261.273 82C261.376 81.8667 261.221 81.3867 259.802 79.7333C260.215 80.24 260.886 80.9067 261.866 81.36C263.001 81.8933 264.162 82 264.214 81.8133C264.265 81.68 263.62 81.52 263.259 80.8533C263.053 80.4533 263.027 80.0533 263.027 79.7333C263.801 80.6133 264.859 81.4933 266.071 81.4667C269.399 81.3333 271.747 74.4267 272.52 72.1333C275.023 64.72 273.965 60 277.216 58.0267C277.499 57.8667 278.789 57.0667 279.873 57.6C281.266 58.2667 281.756 60.8533 280.905 62.2667C280.156 63.4667 278.634 63.44 278.66 63.7067C278.712 64.0533 281.292 64.24 283.742 63.12C284.645 62.72 285.367 62.3733 285.935 61.5733C286.889 60.16 286.683 58.16 286.116 56.88C284.877 54.1333 281.472 53.36 279.202 53.6Z" fill="#161616" stroke="#161616" stroke-width="2.31884" stroke-miterlimit="10"/>
<path opacity="0.22" d="M279.563 64.1333C279.099 64.0533 278.428 63.8933 278.428 63.7333C278.428 63.6533 278.609 63.5733 278.609 63.5733C278.609 63.5466 277.886 64.1333 277.164 64.0533C276.829 63.9999 276.571 63.8133 276.416 63.6533C276.984 66.5599 277.474 70.0799 277.499 74.1333C277.551 79.2799 276.906 83.6799 276.184 87.0666C277.732 87.2533 279.95 87.3066 282.504 86.7466C284.104 86.3999 285.471 85.8666 286.528 85.3599C284.981 80.4533 284.516 76.7199 284.387 74.2399C284.31 73.0666 284.233 70.3199 284.181 68.9866C284.104 66.5333 284.026 64.5066 284 63.1466C283.768 63.2533 283.407 63.4399 282.943 63.6266C282.324 63.8933 281.034 64.3733 279.563 64.1333Z" fill="#6D6C6C"/>
<path d="M277.654 39.0133C280.311 40.3466 281.833 43.2266 281.472 46.0533C281.034 49.4133 278.144 50.9866 277.861 51.1466C280.75 52.3466 283.639 53.52 286.528 54.72C286.761 54.0266 287.019 53.0666 287.148 51.8666C287.509 48.08 286.013 45.2533 285.677 44.6933C285.161 43.7866 283.33 40.72 279.718 39.4933C278.918 39.1733 278.196 39.0666 277.654 39.0133Z" fill="#652D69"/>
</svg>
